<svg xmlns="http://www.w3.org/2000/svg" viewBox="0 0 512 512" role="img" aria-label="Transform Hub icon">
  <defs>
    <linearGradient id="th-bg" x1="0%" y1="0%" x2="100%" y2="100%">
      <stop offset="0%" stop-color="#003c53"/>
      <stop offset="100%" stop-color="#001a26"/>
    </linearGradient>
    <linearGradient id="th-mark" x1="0%" y1="0%" x2="100%" y2="100%">
      <stop offset="0%" stop-color="#00aef0"/>
      <stop offset="100%" stop-color="#008fd0"/>
    </linearGradient>
  </defs>
  <rect width="512" height="512" rx="112" fill="url(#th-bg)"/>
  <g transform="translate(56,56) scale(4)" stroke="url(#th-mark)" stroke-width="7" fill="none" stroke-linecap="butt">
    <path d="M 53.5 7 A 43 43 0 0 1 93 46.5"/>
    <path d="M 93 53.5 A 43 43 0 0 1 53.5 93"/>
    <path d="M 46.5 93 A 43 43 0 0 1 7 53.5"/>
    <path d="M 7 46.5 A 43 43 0 0 1 46.5 7"/>
    <path d="M 27 11 L 50 38"/>
    <path d="M 73 11 L 50 38"/>
    <path d="M 89 27 L 62 50"/>
    <path d="M 89 73 L 62 50"/>
    <path d="M 73 89 L 50 62"/>
    <path d="M 27 89 L 50 62"/>
    <path d="M 11 73 L 38 50"/>
    <path d="M 11 27 L 38 50"/>
  </g>
</svg>
